<?xml version="1.0" standalone="no"?>
<!DOCTYPE svg PUBLIC "-//W3C//DTD SVG 20010904//EN"
 "http://www.w3.org/TR/2001/REC-SVG-20010904/DTD/svg10.dtd">
<svg version="1.0" xmlns="http://www.w3.org/2000/svg"
 width="2800.000000pt" height="2100.000000pt" viewBox="0 0 2800.000000 2100.000000"
 preserveAspectRatio="xMidYMid meet">

<g transform="translate(0.000000,2100.000000) scale(0.100000,-0.100000)"
fill="#000000" stroke="none">
<path d="M14810 17160 l-35 -7 32 -2 c17 0 35 4 38 9 3 6 5 9 3 9 -2 -1 -19
-5 -38 -9z"/>
<path d="M14887 17163 c18 -2 50 -2 70 0 21 2 7 4 -32 4 -38 0 -55 -2 -38 -4z"/>
<path d="M15001 17156 c2 -2 22 -6 44 -9 28 -5 34 -4 20 3 -19 8 -73 14 -64 6z"/>
<path d="M14748 17143 c7 -3 16 -2 19 1 4 3 -2 6 -13 5 -11 0 -14 -3 -6 -6z"/>
<path d="M15170 17109 c47 -15 89 -27 94 -26 10 3 -155 58 -170 56 -5 0 29
-14 76 -30z"/>
<path d="M14745 17085 c-227 -50 -460 -204 -630 -417 -27 -35 -33 -49 -24 -53
8 -3 41 -14 73 -25 l59 -20 66 69 c79 81 165 145 248 185 l62 29 666 -224
c659 -221 665 -223 626 -235 -85 -25 -167 -98 -211 -189 -21 -41 -25 -65 -25
-135 0 -74 3 -89 24 -116 27 -38 35 -41 216 -106 77 -27 172 -61 210 -75 511
-184 693 -243 744 -243 61 0 157 47 202 97 45 52 97 168 105 233 5 46 2 63
-18 101 l-24 47 770 -259 c424 -143 774 -265 778 -272 29 -44 43 -128 43 -257
-1 -182 -14 -217 -215 -592 -90 -167 -320 -595 -512 -953 -193 -357 -386 -717
-430 -800 -45 -82 -109 -202 -143 -265 -34 -63 -84 -155 -110 -205 -26 -49
-206 -382 -398 -740 -193 -357 -378 -702 -412 -765 -93 -173 -210 -390 -285
-530 -123 -230 -421 -784 -495 -920 -40 -74 -313 -580 -605 -1125 -293 -544
-752 -1397 -1020 -1895 -268 -498 -697 -1296 -954 -1775 -257 -478 -492 -907
-523 -952 -94 -142 -205 -227 -369 -283 -31 -11 -65 -20 -75 -20 -10 0 -312
233 -671 518 -648 514 -1848 1467 -1921 1525 -22 19 -41 27 -46 21 -5 -5 -30
-49 -56 -99 -26 -49 -65 -122 -87 -161 l-39 -72 68 -53 c212 -168 802 -638
1478 -1178 424 -339 798 -635 832 -657 34 -23 99 -55 145 -70 73 -25 97 -29
198 -29 136 1 206 17 324 76 201 101 351 266 501 554 32 61 73 135 90 165 18
30 56 100 85 155 80 151 261 475 266 475 3 0 -2 -13 -11 -30 -8 -16 -15 -38
-15 -50 0 -11 -4 -20 -10 -20 -5 0 -10 -7 -10 -15 0 -8 -4 -15 -8 -15 -4 0
-26 -37 -47 -83 -22 -45 -44 -85 -49 -88 -5 -4 -5 -12 -2 -18 4 -6 2 -11 -3
-11 -6 0 -11 -7 -11 -15 0 -8 -4 -15 -10 -15 -5 0 -6 -7 -3 -17 4 -11 3 -14
-5 -9 -8 4 -10 2 -6 -7 3 -8 -2 -22 -11 -30 -9 -9 -21 -30 -26 -46 -6 -17 -15
-29 -21 -28 -16 3 -78 -105 -72 -125 6 -21 -161 -347 -213 -413 -13 -16 -27
-34 -31 -40 -4 -5 -26 -35 -49 -65 -80 -107 -211 -213 -351 -284 -63 -32 -185
-65 -279 -76 l-78 -9 100 4 c197 7 364 86 530 250 162 161 101 55 920 1580
257 479 544 1012 637 1185 94 173 205 380 248 460 210 391 509 947 565 1050
34 63 178 331 320 595 142 264 339 631 438 815 99 184 223 416 277 515 53 99
150 279 215 400 65 121 144 267 175 325 32 58 126 233 210 390 210 392 558
1039 640 1190 37 69 117 217 178 330 158 295 459 855 497 925 18 33 180 335
360 670 180 336 369 687 420 780 166 305 200 382 241 535 81 307 9 610 -191
805 -115 113 -155 131 -595 274 -217 71 -406 132 -420 135 -70 17 47 -23 405
-140 239 -77 415 -140 455 -162 236 -129 373 -404 357 -712 -11 -195 -51 -322
-179 -562 -37 -69 -90 -173 -119 -230 -29 -57 -58 -110 -64 -118 -11 -13 -217
-394 -355 -655 -29 -55 -56 -104 -60 -110 -4 -5 -31 -55 -60 -110 -29 -55 -96
-179 -148 -275 -52 -96 -144 -267 -205 -380 -60 -113 -138 -257 -172 -320 -34
-63 -98 -180 -140 -260 -114 -213 -275 -511 -427 -790 -52 -96 -117 -215 -143
-265 -51 -96 -208 -387 -310 -575 -35 -63 -77 -142 -95 -175 -18 -33 -44 -80
-58 -105 -13 -25 -43 -81 -67 -125 -99 -188 -140 -264 -178 -330 -56 -97 -83
-147 -130 -240 -22 -44 -47 -86 -54 -93 -7 -7 -13 -18 -13 -23 0 -5 -19 -42
-41 -82 -48 -83 -82 -146 -148 -272 -26 -49 -60 -109 -74 -132 -15 -24 -24
-43 -20 -43 5 0 0 -5 -9 -11 -10 -5 -18 -19 -18 -29 0 -11 -5 -20 -11 -20 -5
0 -7 -4 -4 -10 3 -5 2 -10 -2 -10 -5 0 -17 -20 -28 -45 -11 -25 -23 -45 -27
-45 -5 0 -8 -4 -8 -9 0 -5 -31 -64 -68 -132 -38 -68 -88 -160 -112 -204 -23
-44 -54 -100 -68 -125 -13 -25 -40 -74 -60 -110 -20 -36 -66 -121 -104 -189
-37 -68 -68 -125 -68 -127 0 -1 -15 -29 -34 -61 -18 -32 -47 -83 -63 -113 -77
-140 -105 -190 -109 -190 -3 0 3 15 12 33 18 34 383 719 439 822 18 33 121
227 230 430 171 319 503 939 895 1670 116 217 126 236 975 1815 317 591 596
1109 618 1150 22 41 68 127 102 190 34 63 131 243 215 400 84 157 203 377 264
490 134 247 178 343 211 457 92 317 22 628 -184 814 -114 104 -127 109 -1071
413 -316 101 -687 221 -825 266 -137 44 -317 103 -400 130 -82 26 -400 130
-705 230 -721 236 -702 230 -814 229 -50 0 -118 -7 -151 -14z m155 -9595 c-6
-11 -13 -20 -16 -20 -2 0 0 9 6 20 6 11 13 20 16 20 2 0 0 -9 -6 -20z m-29
-57 c-12 -20 -14 -14 -5 12 4 9 9 14 11 11 3 -2 0 -13 -6 -23z m-56 -103 c-9
-16 -18 -30 -21 -30 -2 0 2 14 11 30 9 17 18 30 21 30 2 0 -2 -13 -11 -30z
m-1434 -2667 c-12 -20 -14 -14 -5 12 4 9 9 14 11 11 3 -2 0 -13 -6 -23z"/>
<path d="M15280 17077 c8 -8 351 -119 355 -115 3 2 -66 27 -153 55 -187 61
-209 67 -202 60z"/>
<path d="M15660 16951 c8 -4 29 -11 45 -15 19 -4 25 -3 15 3 -8 4 -28 11 -45
15 -19 4 -25 3 -15 -3z"/>
<path d="M15740 16927 c0 -7 141 -49 146 -44 2 2 -22 11 -54 21 -86 26 -92 28
-92 23z"/>
<path d="M15926 16865 c17 -7 44 -16 60 -20 25 -4 24 -3 -6 8 -19 8 -46 17
-60 20 -19 5 -17 3 6 -8z"/>
<path d="M16065 16820 c27 -12 43 -12 25 0 -8 5 -22 9 -30 9 -10 0 -8 -3 5 -9z"/>
<path d="M16174 16784 c38 -13 71 -22 73 -20 5 5 -116 46 -131 45 -6 0 20 -11
58 -25z"/>
<path d="M16268 16753 c7 -3 16 -2 19 1 4 3 -2 6 -13 5 -11 0 -14 -3 -6 -6z"/>
<path d="M16300 16747 c0 -8 101 -40 107 -34 3 3 -14 11 -37 17 -23 6 -48 14
-56 17 -8 3 -14 3 -14 0z"/>
<path d="M16609 16644 c106 -36 195 -63 197 -61 5 5 -369 128 -382 126 -5 -1
78 -30 185 -65z"/>
<path d="M16884 16554 c39 -13 75 -24 80 -23 6 0 -20 11 -58 25 -39 13 -75 24
-80 23 -6 0 20 -11 58 -25z"/>
<path d="M16980 16525 c0 -6 193 -66 197 -61 4 3 -180 66 -193 66 -2 0 -4 -2
-4 -5z"/>
<path d="M17265 16430 c28 -10 57 -18 65 -18 8 0 -7 8 -35 18 -27 10 -57 18
-65 18 -8 0 8 -8 35 -18z"/>
<path d="M17381 16395 c8 -7 133 -44 137 -40 2 2 -26 13 -63 24 -69 22 -82 24
-74 16z"/>
<path d="M17629 16314 c57 -19 105 -33 107 -31 5 5 -189 68 -202 66 -5 0 38
-16 95 -35z"/>
<path d="M19042 15113 c-12 -47 -28 -94 -35 -102 -8 -9 -26 -52 -42 -96 -15
-44 -44 -114 -65 -155 -47 -92 -313 -590 -845 -1575 -56 -104 -139 -260 -185
-345 -46 -85 -111 -207 -145 -270 -34 -63 -82 -151 -105 -195 -23 -44 -71
-132 -105 -195 -34 -63 -75 -140 -90 -170 -45 -91 -11 -42 45 65 29 55 78 147
110 205 31 58 97 179 145 270 49 91 130 242 180 335 51 94 175 323 275 510
263 491 393 731 480 890 42 77 83 154 92 170 8 17 52 100 98 185 47 85 99 191
117 235 l33 80 0 -63 c0 -60 3 -67 38 -107 21 -24 57 -81 80 -128 51 -101 50
-120 -20 -244 -25 -43 -55 -103 -68 -131 -13 -29 -27 -52 -30 -52 -4 0 -17
-21 -30 -47 -45 -94 -161 -320 -190 -368 -10 -16 -30 -52 -45 -80 -15 -27 -38
-68 -50 -90 -12 -22 -55 -103 -95 -180 -114 -219 -141 -269 -232 -435 -47 -85
-123 -227 -168 -315 -46 -88 -98 -182 -115 -210 -29 -45 -83 -147 -230 -430
-28 -55 -63 -120 -77 -145 -79 -141 -148 -269 -148 -275 0 -23 32 30 126 206
l106 200 91 45 c396 200 844 247 1202 129 186 -61 332 -152 476 -295 227 -225
357 -526 400 -925 26 -241 -19 -629 -101 -865 -52 -150 -74 -212 -90 -250 -37
-87 -90 -205 -100 -220 -5 -8 -27 -49 -49 -90 -139 -267 -420 -604 -671 -803
-138 -109 -247 -178 -395 -248 -230 -109 -389 -149 -615 -155 -222 -5 -360 24
-565 121 -227 106 -450 334 -586 597 -92 180 -162 414 -189 631 l-11 88 57
107 c31 59 79 146 105 193 27 48 49 89 49 92 0 2 12 26 26 51 24 42 28 46 43
33 33 -30 164 -97 187 -97 14 0 37 8 51 17 l27 18 -19 -32 c-14 -24 -16 -36
-8 -44 13 -13 18 -6 88 124 26 49 48 87 50 85 2 -2 24 -77 50 -168 26 -91 53
-171 60 -178 10 -12 26 11 86 124 41 77 75 142 77 145 2 4 -4 9 -11 12 -11 4
-32 -26 -73 -104 -33 -60 -61 -109 -64 -109 -3 0 -27 79 -54 176 -43 151 -52
175 -67 171 -11 -3 -17 0 -16 7 1 6 -4 11 -11 11 -7 0 -37 -45 -66 -100 -69
-129 -77 -132 -178 -76 -105 57 -107 61 -75 124 40 79 121 230 130 244 6 10
20 7 57 -12 l49 -25 44 83 c24 45 81 151 127 235 45 84 84 152 86 150 2 -2 33
-152 69 -333 36 -182 68 -337 70 -345 5 -16 150 -98 158 -90 10 11 357 659
357 667 0 4 -27 22 -59 40 l-58 32 -129 -239 c-71 -132 -131 -240 -134 -240
-3 0 -31 134 -63 298 -32 163 -63 318 -68 344 -10 44 -14 49 -75 83 l-65 36
35 62 c70 126 127 239 123 244 -7 6 -57 -83 -57 -100 0 -9 -4 -17 -9 -19 -9
-3 -49 -75 -147 -268 -27 -52 -51 -97 -54 -100 -9 -9 -72 -124 -190 -345 -78
-149 -125 -235 -182 -340 -30 -55 -64 -120 -76 -145 -11 -25 -35 -70 -53 -100
-17 -30 -42 -73 -54 -95 -13 -22 -48 -85 -79 -140 -31 -55 -63 -119 -72 -142
-9 -24 -21 -43 -25 -43 -5 0 -9 -4 -9 -9 0 -12 -27 -70 -55 -116 -13 -22 -28
-49 -34 -60 -5 -11 -42 -78 -81 -150 -40 -71 -99 -181 -132 -244 -33 -63 -70
-130 -84 -150 -13 -20 -24 -43 -24 -51 0 -9 -13 -36 -28 -61 -32 -49 -91 -156
-162 -294 -26 -49 -62 -117 -80 -150 -48 -88 -70 -133 -70 -144 0 -5 -4 -11
-9 -13 -5 -1 -30 -43 -57 -93 -26 -49 -63 -119 -82 -155 -108 -203 -144 -276
-124 -255 5 6 35 60 67 120 31 61 60 115 65 120 4 6 30 53 57 105 48 90 236
442 300 560 17 30 52 96 78 145 26 50 67 124 90 165 23 41 54 100 69 130 78
153 116 211 116 176 0 -33 112 -351 157 -444 94 -197 243 -391 418 -542 73
-63 251 -176 311 -197 260 -90 266 -91 449 -92 216 0 321 15 135 20 -69 1
-136 2 -150 2 -58 -3 -232 43 -337 88 -70 30 -45 33 33 3 109 -41 184 -63 184
-53 0 5 -6 9 -14 9 -8 0 -17 4 -20 9 -4 5 2 8 11 6 10 -1 52 -6 93 -9 41 -4
90 -9 108 -12 20 -3 32 -1 28 4 -3 5 -37 12 -75 16 -73 6 -135 23 -96 26 11 1
-23 12 -75 25 -107 25 -223 69 -241 91 -12 15 -7 15 39 -3 9 -3 19 -7 22 -7 3
-1 14 -7 25 -13 34 -18 231 -72 292 -79 32 -3 67 -8 78 -10 41 -9 255 -4 327
6 962 144 1847 1179 2019 2365 22 151 17 502 -9 675 -41 262 -101 446 -205
625 -38 67 -124 183 -157 215 -9 8 -19 22 -22 31 -7 17 -126 126 -201 183 -54
40 -53 47 2 14 61 -36 173 -128 234 -192 31 -32 57 -54 57 -48 0 6 -7 18 -16
26 -8 9 -12 16 -7 16 5 0 17 -10 28 -22 10 -13 40 -48 65 -78 26 -30 57 -72
70 -93 12 -21 24 -36 27 -33 10 10 -88 152 -171 246 -89 101 -166 173 -261
244 -27 21 -49 40 -47 42 1 2 -1 4 -4 3 -3 0 -11 7 -17 15 -11 15 -84 47 -182
81 -22 8 -105 30 -185 51 -134 33 -158 36 -320 39 -96 2 -212 0 -257 -5 -98
-11 -275 -51 -393 -89 l-87 -28 45 86 c25 47 67 125 93 174 27 48 49 89 49 92
0 2 33 64 73 137 41 73 94 171 119 218 25 47 107 200 183 340 76 140 176 327
223 415 46 88 143 266 214 396 134 247 179 356 197 481 15 109 21 194 12 179
-6 -9 -21 0 -56 38 -26 28 -53 51 -60 51 -6 0 -22 11 -35 25 -13 14 -28 25
-34 25 -6 0 -17 9 -24 20 -7 11 -16 20 -20 20 -4 0 -17 -39 -30 -87z m105
-2609 c-3 -3 -12 -4 -19 -1 -8 3 -5 6 6 6 11 1 17 -2 13 -5z m119 -30 c44 -14
84 -30 89 -36 7 -8 4 -9 -10 -3 -11 4 -58 20 -105 36 -47 15 -78 28 -69 28 9
1 52 -11 95 -25z m-39 -70 c-3 -3 -12 -4 -19 -1 -8 3 -5 6 6 6 11 1 17 -2 13
-5z m122 -40 c92 -36 210 -98 253 -132 92 -74 160 -137 199 -183 71 -83 167
-240 199 -325 17 -44 1 -25 -30 36 -92 182 -225 335 -404 464 -44 32 -101 67
-126 78 -24 11 -47 22 -50 26 -3 4 -38 21 -77 36 -68 27 -84 36 -65 36 4 0 49
-16 101 -36z m462 -211 c13 -16 12 -17 -3 -4 -17 13 -22 21 -14 21 2 0 10 -8
17 -17z m219 -498 c0 -5 -5 -3 -10 5 -5 8 -10 20 -10 25 0 6 5 3 10 -5 5 -8
10 -19 10 -25z m7 -1032 c-2 -21 -4 -6 -4 32 0 39 2 55 4 38 2 -18 2 -50 0
-70z m-2 -80 c-13 -93 -29 -174 -35 -178 -5 -3 12 127 26 193 7 37 14 25 9
-15z m-875 -1686 c0 -2 -12 -14 -27 -28 l-28 -24 24 28 c23 25 31 32 31 24z
m-60 -61 c0 -3 -4 -8 -10 -11 -5 -3 -10 -1 -10 4 0 6 5 11 10 11 6 0 10 -2 10
-4z m-30 -19 c0 -2 -10 -12 -22 -23 l-23 -19 19 23 c18 21 26 27 26 19z m-50
-40 c0 -2 -10 -12 -22 -23 l-23 -19 19 23 c18 21 26 27 26 19z m-50 -40 c0 -2
-10 -12 -22 -23 l-23 -19 19 23 c18 21 26 27 26 19z"/>
<path d="M10130 13173 c-81 -10 -342 -65 -430 -92 -352 -107 -671 -302 -950
-581 -181 -181 -281 -310 -407 -525 -168 -288 -274 -579 -333 -915 -37 -211
-35 -615 5 -800 3 -14 8 -41 11 -60 9 -55 62 -238 91 -315 181 -489 571 -860
1008 -960 155 -35 355 -45 500 -25 297 43 652 205 925 425 225 180 462 452
629 720 58 94 217 408 246 485 7 19 29 80 49 135 176 480 209 1008 92 1490
-97 401 -335 719 -662 885 -112 58 -258 105 -384 125 -87 14 -301 18 -390 8z
m380 -19 c431 -68 762 -321 949 -726 61 -130 58 -144 -5 -23 -76 148 -131 229
-227 331 -233 249 -513 380 -902 424 -75 8 -73 9 35 4 63 -2 131 -7 150 -10z
m-9 -113 c41 -11 93 -27 117 -35 63 -24 219 -104 228 -117 4 -6 3 -10 -2 -7
-212 100 -338 138 -514 153 -85 8 -303 -8 -422 -31 -91 -17 -276 -78 -381
-125 -77 -35 -118 -62 -52 -34 190 79 365 128 522 146 138 17 389 5 496 -22
20 -6 42 -7 47 -4 6 3 10 2 10 -2 0 -5 9 -9 20 -10 30 -3 121 -38 188 -73 264
-141 454 -342 587 -622 70 -148 140 -422 166 -653 14 -127 5 -346 -20 -496
-19 -109 -66 -288 -78 -299 -3 -3 -3 6 1 20 19 73 12 73 -9 0 -14 -47 -29 -86
-34 -88 -6 -2 -7 -10 -4 -18 3 -8 -1 -22 -9 -32 -16 -20 -24 -38 -67 -152 -52
-139 -182 -396 -215 -425 -6 -5 -31 -39 -56 -75 -24 -36 -50 -71 -57 -78 -7
-7 -13 -17 -13 -20 0 -4 -12 -21 -27 -38 -16 -17 -39 -46 -53 -64 -104 -140
-338 -359 -504 -473 -138 -95 -361 -205 -496 -246 -67 -20 -182 -45 -260 -55
-52 -8 -281 -8 -301 -2 -8 3 -32 7 -54 10 -22 3 -62 10 -90 16 -27 7 -63 13
-80 14 -69 5 -181 58 -301 142 -103 71 -128 83 -63 28 24 -20 49 -44 56 -54 7
-10 68 -45 135 -78 125 -62 308 -117 356 -108 12 3 22 2 22 -2 0 -4 67 -5 150
-2 97 3 150 1 150 -5 0 -6 3 -6 8 1 4 6 30 11 57 11 96 0 326 73 486 153 174
88 361 226 532 391 67 65 123 117 124 115 6 -5 -173 -189 -257 -264 -244 -218
-498 -350 -771 -403 -99 -19 -136 -20 -352 -17 -208 4 -253 8 -321 26 -99 27
-245 97 -316 151 -153 116 -350 310 -415 411 -48 74 -142 263 -183 370 -134
345 -156 834 -56 1250 58 245 55 236 140 463 33 88 141 284 222 402 177 256
500 564 743 705 127 74 291 148 409 183 119 36 365 82 505 95 107 9 265 -2
356 -27z m499 -270 c25 -20 57 -48 72 -63 14 -15 29 -24 32 -20 12 11 116
-101 171 -183 55 -82 86 -145 125 -250 31 -84 16 -63 -35 49 -48 107 -132 238
-195 306 -38 41 -40 42 -20 10 16 -25 8 -20 -28 21 -28 31 -84 82 -124 114
-93 75 -98 80 -68 65 14 -7 45 -29 70 -49z m-172 -3041 c-7 -11 -17 -20 -22
-20 -5 0 -1 9 9 20 10 11 20 20 22 20 2 0 -2 -9 -9 -20z"/>
<path d="M9250 12752 c-14 -9 -59 -38 -100 -65 -266 -175 -605 -557 -776 -872
-49 -92 -115 -242 -117 -267 -1 -10 -4 -18 -7 -18 -3 0 -6 -8 -7 -17 -1 -10
-18 -72 -37 -138 -125 -415 -140 -824 -44 -1192 12 -46 25 -83 29 -83 3 0 0
26 -8 58 -72 294 -84 500 -48 822 4 36 9 74 12 85 2 11 7 34 9 50 3 17 12 57
20 90 8 33 16 67 18 75 2 8 10 35 17 60 7 25 13 47 14 50 13 50 60 181 78 218
13 26 27 58 30 72 12 47 212 388 247 420 3 3 25 32 50 65 90 121 260 295 390
399 47 37 102 82 123 99 21 18 44 31 50 29 7 -2 9 0 5 4 -4 4 13 20 37 35 25
16 45 31 45 34 0 7 -1 6 -30 -13z"/>
<path d="M8907 12033 c-38 -66 -348 -646 -345 -648 2 -1 28 -16 58 -34 l56
-31 119 222 c66 121 125 228 131 236 15 21 12 31 74 -288 66 -343 78 -401 82
-404 9 -8 136 -76 140 -76 3 0 77 132 163 293 87 160 169 310 182 333 l23 41
-59 32 -60 31 -45 -82 c-24 -46 -81 -150 -126 -233 -45 -82 -85 -154 -90 -159
-4 -4 -13 16 -19 45 -5 30 -31 162 -56 294 -25 132 -52 267 -59 300 l-12 59
-70 38 c-73 40 -80 42 -87 31z"/>
<path d="M9500 11328 c-89 -167 -171 -317 -182 -335 l-19 -31 54 -31 c30 -17
58 -31 63 -31 5 0 38 56 74 125 36 69 69 125 73 125 5 0 116 -61 247 -135 132
-74 243 -135 247 -135 4 0 25 33 47 72 34 63 36 73 23 83 -9 6 -120 69 -246
139 -127 71 -231 133 -231 138 0 14 39 86 50 93 9 5 411 -207 496 -262 21 -13
24 -10 63 61 22 41 41 77 41 80 0 4 -593 330 -621 341 -13 5 -50 -58 -179
-297z"/>
<path d="M8446 11207 c-58 -107 -68 -155 -43 -189 22 -28 166 -108 195 -108
16 0 37 9 49 19 21 20 123 202 123 220 0 31 -24 0 -75 -94 -74 -138 -80 -140
-222 -49 -69 44 -69 64 -3 185 53 97 55 104 41 114 -5 3 -35 -41 -65 -98z"/>
<path d="M10403 11189 c-52 -10 -111 -47 -144 -90 -30 -41 -168 -297 -192
-357 -24 -60 -22 -138 6 -192 21 -42 36 -53 242 -172 243 -140 255 -144 340
-104 78 36 176 152 148 175 -4 4 -29 20 -56 35 -40 23 -48 25 -53 12 -8 -22
-71 -58 -99 -58 -29 0 -324 164 -356 199 -38 39 -31 91 25 201 26 50 57 104
69 118 25 33 76 55 107 47 42 -11 325 -173 348 -200 23 -25 26 -61 11 -112 -2
-9 17 -26 53 -47 66 -37 63 -39 94 52 11 32 15 71 12 119 -5 112 -14 120 -260
255 -116 63 -220 118 -232 121 -11 3 -40 2 -63 -2z"/>
<path d="M8711 11009 c-45 -83 -68 -136 -62 -142 6 -6 28 26 59 84 28 52 57
103 65 114 14 19 15 18 26 -20 6 -22 29 -103 50 -180 21 -76 43 -141 49 -143
12 -4 157 266 148 275 -10 10 -22 -6 -76 -107 -29 -52 -55 -98 -59 -103 -4 -4
-29 72 -57 170 -27 97 -54 178 -60 180 -6 2 -44 -56 -83 -128z"/>
<path d="M11461 11084 c0 -11 3 -14 6 -6 3 7 2 16 -1 19 -3 4 -6 -2 -5 -13z"/>
<path d="M11452 11030 c0 -14 2 -19 5 -12 2 6 2 18 0 25 -3 6 -5 1 -5 -13z"/>
<path d="M11436 10964 c-4 -20 -5 -38 -3 -40 3 -3 8 11 11 32 4 20 5 38 3 40
-3 3 -8 -11 -11 -32z"/>
<path d="M9021 10829 c-71 -131 -79 -149 -62 -149 9 0 151 256 151 272 0 29
-28 -9 -89 -123z"/>
<path d="M9144 10800 c8 -173 15 -240 27 -240 5 0 71 34 147 75 76 41 141 75
146 75 4 0 -23 -57 -60 -126 -36 -69 -65 -126 -63 -128 36 -28 252 -145 259
-141 21 13 7 25 -105 90 -63 37 -115 71 -115 77 0 8 30 65 46 86 1 2 53 -26
114 -62 102 -60 130 -70 130 -46 0 5 -52 38 -115 75 l-115 67 14 26 c39 73 31
73 161 -2 91 -53 119 -65 126 -55 11 18 3 23 -149 110 l-122 71 -141 -77 c-77
-42 -142 -75 -143 -73 -2 1 -7 74 -13 161 -6 104 -14 162 -23 170 -10 10 -11
-15 -6 -133z"/>
<path d="M9753 10568 c-29 -37 -142 -267 -134 -272 5 -3 19 10 31 29 l22 35
31 -18 c18 -11 60 -36 95 -56 l62 -37 0 -49 c0 -27 5 -52 10 -55 10 -6 11 0
14 64 1 26 6 36 26 43 14 5 32 18 41 30 16 21 16 21 26 -9 9 -23 33 -43 112
-88 55 -32 103 -65 106 -74 8 -21 -27 -65 -56 -69 -15 -1 -56 16 -104 45 l-80
48 1 58 c1 31 -3 57 -8 57 -21 0 -36 -87 -22 -124 3 -9 45 -39 92 -68 114 -69
157 -66 199 16 25 49 12 67 -97 130 -112 65 -130 85 -106 121 28 42 51 41 139
-11 45 -26 86 -52 90 -58 4 -6 6 -32 3 -58 -5 -52 8 -65 24 -22 11 29 13 75 4
98 -9 25 -170 116 -203 116 -16 0 -39 -9 -53 -19 l-24 -19 4 33 c2 18 -1 42
-7 53 -8 15 -210 142 -226 142 -1 0 -7 -6 -12 -12z m150 -108 c70 -39 79 -63
49 -126 -33 -66 -53 -66 -166 0 -53 31 -96 59 -96 62 0 2 17 36 38 74 l37 69
40 -23 c22 -13 66 -38 98 -56z"/>
<path d="M10252 10116 c-40 -73 -72 -138 -72 -144 0 -9 235 -152 251 -152 5 0
9 7 9 15 0 8 -46 41 -102 74 -57 34 -109 65 -116 69 -10 7 -7 19 14 55 14 26
28 47 31 47 2 0 54 -29 115 -65 84 -50 113 -63 119 -53 11 16 1 23 -123 94
-54 31 -98 57 -98 59 0 11 53 94 58 91 4 -2 55 -31 114 -65 59 -33 111 -61
116 -61 6 0 12 6 15 13 3 9 -38 38 -119 85 -68 40 -128 72 -132 72 -4 0 -40
-60 -80 -134z"/>
<path d="M11110 12671 c0 -6 4 -13 10 -16 6 -3 7 1 4 9 -7 18 -14 21 -14 7z"/>
<path d="M8735 12622 c-33 -32 -73 -73 -90 -92 -16 -19 13 6 65 55 52 50 96
91 99 93 2 1 0 2 -5 2 -5 0 -36 -26 -69 -58z"/>
<path d="M13635 12621 c-126 -23 -276 -60 -292 -73 -14 -11 -58 -87 -78 -135
l-13 -31 31 13 c36 14 107 28 107 21 0 -2 -17 -10 -37 -16 -123 -38 -119 -34
-178 -148 -30 -58 -55 -107 -55 -109 0 -1 26 9 58 23 106 48 266 102 387 130
109 25 139 28 315 28 206 1 247 -2 351 -29 223 -57 396 -150 549 -297 144
-136 269 -342 333 -543 43 -138 90 -352 90 -407 -1 -21 3 -38 8 -38 15 0 9
-370 -7 -485 -14 -98 -59 -294 -71 -305 -3 -3 -3 13 0 35 7 46 -4 20 -23 -52
-6 -24 -16 -43 -23 -43 -9 0 -8 -3 1 -9 11 -6 10 -11 -3 -25 -9 -9 -13 -16 -9
-16 3 0 1 -6 -5 -13 -6 -8 -8 -17 -4 -21 4 -4 2 -10 -4 -14 -6 -4 -34 -67 -63
-141 -68 -176 -150 -339 -223 -441 -168 -237 -277 -369 -413 -502 -314 -307
-665 -497 -1019 -552 -124 -20 -334 -14 -455 12 -97 21 -255 76 -266 93 -3 5
-11 9 -19 9 -39 0 -201 119 -313 228 -162 159 -309 417 -382 668 -29 104 -60
253 -60 299 0 40 0 40 -18 17 -9 -12 -37 -61 -62 -109 -25 -48 -67 -126 -93
-174 l-48 -86 40 -119 c63 -190 136 -335 255 -504 76 -109 207 -237 318 -312
20 -14 34 -29 30 -33 -4 -5 -1 -5 6 0 10 5 1 19 -34 51 -26 24 -44 44 -40 44
5 0 50 -29 101 -64 93 -64 212 -132 220 -124 2 2 -8 11 -23 21 -15 10 -57 36
-93 60 -101 64 -153 112 -253 232 -112 135 -138 170 -160 215 l-16 35 22 -29
c141 -181 254 -296 371 -380 134 -95 316 -171 507 -212 126 -27 370 -24 510 5
488 102 967 427 1320 896 25 33 47 62 50 65 6 5 104 155 153 235 47 74 107
186 137 255 15 36 46 106 68 155 55 124 140 382 158 481 2 12 13 64 23 115 11
52 22 126 26 164 4 39 8 81 11 95 9 51 5 358 -6 445 -58 473 -170 744 -410
986 -149 150 -302 243 -500 304 -78 24 -291 63 -312 57 -5 -1 -8 4 -8 11 0 8
-4 7 -10 -3 -7 -11 -10 -11 -10 -2 0 10 -32 12 -150 8 -82 -3 -155 -8 -160
-11 -6 -4 -18 -1 -27 7 -12 9 -15 9 -9 1 4 -8 1 -13 -9 -13 -9 0 -13 5 -10 11
5 7 -7 8 -39 4 -25 -4 -46 -5 -46 -2 0 11 179 36 272 39 55 2 94 7 91 12 -17
26 418 -33 479 -65 10 -6 24 -9 30 -7 14 5 -107 51 -215 82 -165 48 -466 60
-652 27z m61 -100 c-7 -11 -66 -20 -66 -10 0 4 15 10 33 12 17 2 33 5 35 5 2
1 1 -2 -2 -7z m448 -29 c2 -4 -11 -6 -30 -4 -19 2 -34 6 -34 8 0 8 59 4 64 -4z
m137 -16 c399 -71 713 -319 891 -704 53 -114 47 -126 -8 -17 -73 143 -151 253
-254 355 -184 184 -396 297 -674 360 -95 21 -65 25 45 6z m-778 -33 c-7 -2
-19 -2 -25 0 -7 3 -2 5 12 5 14 0 19 -2 13 -5z m-53 -13 c-8 -5 -24 -9 -35 -9
l-20 0 20 9 c11 5 27 9 35 9 13 1 13 0 0 -9z m1501 -535 c23 -31 40 -57 38
-59 -2 -2 -23 22 -46 55 -54 75 -48 77 8 4z m63 -91 c3 -8 2 -12 -4 -9 -6 3
-10 10 -10 16 0 14 7 11 14 -7z m20 -40 c3 -8 2 -12 -4 -9 -6 3 -10 10 -10 16
0 14 7 11 14 -7z m196 -139 c0 -5 -5 -3 -10 5 -5 8 -10 20 -10 25 0 6 5 3 10
-5 5 -8 10 -19 10 -25z m-728 -2562 c-249 -298 -577 -538 -857 -628 -82 -26
-243 -60 -251 -52 -2 2 34 13 81 25 176 45 411 154 576 268 46 31 89 62 96 68
6 6 48 40 93 76 44 36 129 116 188 177 59 62 109 113 110 113 2 0 -14 -21 -36
-47z m-2437 -363 c10 -11 16 -20 13 -20 -3 0 -13 9 -23 20 -10 11 -16 20 -13
20 3 0 13 -9 23 -20z m50 -60 l20 -25 -22 19 c-13 11 -23 24 -23 29 0 6 1 8 3
6 1 -2 11 -15 22 -29z m772 -256 c-3 -3 -12 -4 -19 -1 -8 3 -5 6 6 6 11 1 17
-2 13 -5z m301 -11 c-21 -2 -55 -2 -75 0 -21 2 -4 4 37 4 41 0 58 -2 38 -4z"/>
<path d="M8579 12453 c-13 -16 -12 -17 4 -4 16 13 21 21 13 21 -2 0 -10 -8
-17 -17z"/>
<path d="M17309 11798 c-45 -84 -110 -205 -144 -268 -34 -63 -88 -164 -120
-225 -32 -60 -62 -116 -68 -123 -5 -7 -8 -15 -5 -17 3 -3 33 48 68 112 92 172
111 206 177 328 109 200 184 345 179 345 -2 0 -41 -69 -87 -152z"/>
<path d="M17285 11482 c-16 -11 -35 -25 -41 -33 -6 -8 -94 -167 -194 -354
-223 -416 -231 -430 -424 -790 -139 -258 -156 -295 -156 -337 0 -67 35 -101
84 -82 23 9 20 34 -4 34 -11 0 -20 6 -20 13 0 9 -3 8 -9 -2 -7 -11 -11 -10
-20 7 -17 31 -14 44 9 37 14 -5 20 -2 20 9 0 9 -4 16 -10 16 -24 0 -6 57 54
167 34 65 99 186 144 268 44 83 160 299 257 480 98 182 196 364 218 405 49 92
107 153 139 148 13 -2 22 -8 21 -13 -1 -6 7 -22 18 -35 l19 -25 0 26 c0 32
-35 79 -58 79 -9 0 -30 -8 -47 -18z"/>
<path d="M17285 11419 c-11 -17 1 -21 15 -4 8 9 8 15 2 15 -6 0 -14 -5 -17
-11z"/>
<path d="M12624 11232 c-32 -59 -96 -179 -144 -267 -165 -303 -157 -285 -135
-301 10 -8 24 -14 30 -14 5 0 66 104 134 231 68 126 127 227 132 222 5 -6 139
-655 139 -678 0 -5 151 -87 154 -83 10 12 352 655 354 665 2 6 -23 25 -55 41
l-58 30 -129 -240 c-71 -131 -132 -236 -136 -231 -3 4 -12 37 -18 73 -16 86
-110 569 -117 595 -2 12 -23 30 -49 43 l-45 21 -57 -107z"/>
<path d="M16914 11063 c-26 -49 -75 -140 -109 -203 -34 -63 -84 -155 -110
-205 -26 -49 -74 -137 -105 -195 -59 -107 -174 -322 -250 -465 -24 -44 -106
-197 -183 -340 -77 -143 -155 -289 -174 -325 -41 -76 -149 -275 -278 -515 -51
-93 -129 -240 -175 -325 -46 -85 -127 -236 -180 -335 -53 -99 -137 -254 -185
-345 -48 -91 -114 -212 -145 -270 -32 -58 -91 -168 -133 -245 -41 -77 -122
-228 -179 -335 -58 -107 -129 -240 -158 -295 -29 -55 -72 -134 -95 -175 -23
-41 -66 -120 -95 -175 -29 -55 -112 -210 -185 -345 -73 -135 -158 -294 -190
-355 -32 -60 -61 -114 -65 -120 -4 -5 -40 -73 -80 -150 -40 -77 -76 -144 -80
-150 -7 -9 -178 -327 -273 -505 -39 -75 -73 -137 -285 -530 -61 -113 -149
-277 -195 -365 -97 -182 -190 -332 -255 -407 -24 -29 -48 -62 -52 -74 -14 -36
-158 -153 -240 -194 -96 -48 -189 -77 -299 -91 -72 -10 -102 -9 -182 4 -52 9
-104 19 -115 22 -16 6 -17 5 -2 -4 25 -17 172 -49 298 -66 137 -18 163 -19
155 -5 -5 7 16 10 62 9 109 -3 273 11 333 28 157 45 358 206 477 384 28 41 88
145 133 230 106 199 149 278 225 419 66 122 316 588 405 755 30 55 86 160 127
234 40 74 73 136 73 138 0 2 20 38 44 81 24 42 67 122 96 177 60 113 102 191
172 318 26 48 48 89 48 91 0 2 20 39 43 82 24 44 64 117 89 164 59 112 109
204 174 323 30 53 54 99 54 101 0 3 45 86 100 186 55 101 100 184 100 186 0 2
22 43 48 91 27 49 75 138 107 198 31 61 61 115 65 120 4 6 38 69 75 140 38 72
76 145 86 163 10 17 15 32 10 32 -6 0 -29 -37 -52 -82 -23 -46 -52 -99 -65
-118 -13 -19 -24 -40 -24 -47 0 -7 -12 -29 -26 -50 -14 -21 -44 -76 -66 -123
-22 -47 -45 -86 -49 -88 -5 -2 -9 -9 -9 -15 0 -7 -18 -44 -41 -82 -22 -39 -70
-126 -106 -195 -36 -69 -69 -130 -74 -136 -5 -6 -31 -54 -58 -105 -85 -166
-153 -293 -181 -339 -15 -25 -40 -73 -55 -107 -15 -35 -32 -63 -36 -63 -5 0
-9 -8 -9 -18 0 -10 -8 -28 -17 -42 -19 -27 -89 -155 -131 -240 -15 -30 -31
-58 -36 -61 -4 -4 -22 -33 -38 -65 -35 -68 -77 -147 -116 -219 -15 -27 -48
-88 -72 -135 -24 -47 -57 -107 -73 -134 -15 -27 -53 -96 -84 -154 -31 -58 -69
-126 -84 -151 -16 -25 -29 -48 -29 -53 0 -4 -33 -67 -73 -140 -41 -73 -95
-173 -122 -223 -123 -231 -179 -335 -212 -390 -19 -33 -43 -73 -53 -90 -9 -16
-23 -30 -31 -31 -8 0 -21 -2 -30 -2 -10 -1 -19 -14 -22 -31 -5 -24 -12 -29
-49 -36 l-43 -7 30 -13 c16 -7 34 -11 41 -8 6 2 14 -3 17 -12 6 -15 1 -27 -66
-140 -20 -33 -48 -84 -63 -112 -15 -29 -31 -53 -36 -53 -5 0 -4 9 2 21 7 11 9
23 7 26 -3 2 -8 -5 -12 -17 -11 -35 -89 -56 -237 -63 -48 -3 -93 -10 -100 -16
-7 -6 -31 -25 -53 -43 -22 -18 -35 -26 -29 -18 62 88 146 237 361 645 47 88
109 204 139 258 30 53 54 99 54 101 0 2 19 39 43 82 24 44 65 120 92 169 90
169 198 370 255 475 32 58 110 204 175 325 65 121 130 243 145 270 15 28 62
115 105 195 43 80 108 201 145 270 38 69 86 159 108 200 21 41 100 188 174
325 74 138 156 291 183 340 26 50 73 137 105 195 75 138 195 360 260 485 29
55 61 114 70 130 10 17 67 122 128 235 60 113 125 234 144 270 82 151 318 592
360 670 25 47 108 200 183 340 76 140 156 289 178 330 22 41 68 127 102 190
34 63 96 178 137 255 105 196 134 250 320 595 189 349 210 390 204 390 -3 0
-26 -39 -52 -87z"/>
<path d="M13190 10643 c-96 -180 -176 -332 -178 -338 -1 -5 23 -24 55 -42 l58
-32 69 130 c53 100 73 129 85 124 16 -6 373 -199 446 -241 l40 -23 43 78 42
78 -248 133 c-136 73 -249 134 -250 136 -6 4 50 104 58 104 4 0 122 -61 261
-135 139 -74 253 -134 254 -132 1 1 21 36 43 77 l41 75 -314 168 c-173 92
-318 167 -322 167 -5 0 -87 -148 -183 -327z"/>
<path d="M18003 10602 l-182 -337 57 -32 c31 -18 60 -33 63 -33 3 0 24 35 47
78 22 42 54 100 69 129 l29 52 249 -135 c137 -73 250 -134 251 -134 1 0 21 34
44 77 31 58 38 78 28 85 -7 4 -119 65 -248 134 -129 70 -237 128 -238 129 -3
3 31 68 53 103 1 1 116 -59 256 -133 140 -74 257 -135 261 -135 7 0 91 150 86
155 -8 7 -631 335 -637 335 -3 0 -88 -152 -188 -338z"/>
<path d="M14105 10541 c-92 -23 -134 -69 -235 -255 -108 -198 -113 -210 -113
-286 -1 -67 14 -110 49 -142 11 -9 113 -68 229 -132 148 -82 219 -116 242
-116 48 0 119 37 170 88 42 44 79 99 70 108 -2 2 -27 17 -56 32 l-52 29 -34
-34 c-30 -30 -55 -39 -95 -33 -21 3 -319 168 -339 187 -11 12 -16 34 -16 72 1
49 8 69 56 156 63 113 103 150 154 141 38 -6 345 -170 363 -194 9 -11 12 -35
9 -73 l-5 -55 55 -30 c53 -28 55 -29 69 -9 18 24 32 75 40 141 7 58 -15 141
-44 167 -29 26 -426 234 -458 240 -16 3 -42 2 -59 -2z"/>
<path d="M18925 10510 c-50 -11 -91 -37 -129 -82 -31 -36 -169 -280 -203 -359
-33 -77 -24 -173 22 -228 15 -17 115 -78 237 -145 226 -124 251 -132 323 -102
45 19 132 101 155 146 l18 36 -59 31 c-56 29 -60 30 -72 13 -22 -31 -84 -62
-109 -54 -41 12 -312 165 -338 190 -42 41 -34 99 30 216 59 109 82 134 129
148 30 8 45 3 159 -57 70 -36 150 -78 178 -94 69 -39 87 -84 60 -149 -4 -11
11 -24 54 -47 56 -30 60 -31 69 -14 41 75 54 202 27 264 -21 49 -45 65 -262
180 -204 107 -236 119 -289 107z"/>
<path d="M15165 10455 c-3 -26 -4 -49 -2 -51 3 -3 8 16 12 41 3 26 4 49 2 51
-3 3 -8 -16 -12 -41z"/>
<path d="M12401 10389 c-69 -131 -77 -134 -174 -80 -70 39 -87 42 -87 16 0
-19 132 -89 165 -87 28 2 59 28 93 78 7 10 -3 -11 -23 -47 -32 -60 -35 -79
-14 -79 4 0 34 49 66 110 32 60 61 106 64 102 3 -4 25 -77 49 -162 50 -182 56
-198 75 -179 29 32 145 268 135 274 -14 9 -8 18 -75 -109 -40 -74 -60 -104
-66 -94 -4 7 -26 81 -49 163 -46 162 -56 189 -71 180 -5 -4 -9 -1 -9 4 0 6 -6
11 -13 11 -7 0 -37 -45 -66 -101z m64 41 c-9 -16 -18 -30 -21 -30 -2 0 2 14
11 30 9 17 18 30 21 30 2 0 -2 -13 -11 -30z"/>
<path d="M15141 10324 c0 -11 3 -14 6 -6 3 7 2 16 -1 19 -3 4 -6 -2 -5 -13z"/>
<path d="M12725 10168 c-84 -157 -80 -148 -62 -148 12 0 157 253 157 274 0 3
-6 6 -12 6 -7 0 -44 -59 -83 -132z"/>
<path d="M12843 10193 c4 -49 10 -134 13 -190 5 -71 10 -103 19 -103 12 0 191
95 257 136 21 13 40 24 44 24 5 0 -33 -72 -108 -207 l-29 -51 133 -76 c90 -51
135 -72 139 -64 4 7 6 15 3 19 -2 4 -54 35 -114 69 -60 34 -112 65 -114 69 -8
12 45 93 57 88 7 -3 59 -32 117 -65 87 -51 106 -58 113 -46 5 9 7 17 5 18 -1
2 -48 28 -103 59 -55 32 -106 61 -114 66 -11 7 -9 16 10 50 12 22 27 41 32 41
6 0 58 -27 117 -60 112 -63 134 -70 128 -44 -3 15 -249 164 -271 164 -5 0 -70
-34 -145 -75 -74 -42 -136 -74 -137 -73 -2 2 -8 75 -15 163 -12 165 -14 175
-32 175 -7 0 -9 -28 -5 -87z"/>
<path d="M17541 10136 c-73 -139 -80 -156 -58 -156 10 0 157 265 157 284 0 3
-6 6 -14 6 -8 0 -45 -58 -85 -134z"/>
<path d="M17655 10231 c2 -10 7 -76 11 -147 4 -71 8 -136 10 -144 1 -8 3 -30
3 -47 1 -18 6 -33 12 -33 6 0 74 36 152 80 78 43 143 78 145 76 1 -2 -27 -58
-64 -125 -36 -68 -64 -124 -62 -126 1 -1 68 -39 147 -84 137 -78 158 -85 161
-51 0 3 7 13 15 24 13 17 18 16 104 -33 l90 -52 3 -51 c4 -70 28 -78 28 -10 0
45 2 51 29 62 16 6 32 18 35 26 7 18 26 18 26 1 0 -20 25 -39 125 -97 50 -29
93 -57 97 -63 8 -13 -8 -47 -31 -64 -22 -17 -47 -10 -130 38 -90 52 -95 59
-76 132 11 41 -19 35 -32 -6 -12 -39 -9 -83 7 -102 19 -23 167 -105 189 -105
36 0 68 21 90 60 31 56 20 73 -94 138 -117 68 -127 80 -99 119 12 15 28 29 37
31 16 3 176 -83 190 -102 7 -10 5 -54 -4 -85 -2 -7 1 -15 8 -18 19 -7 38 70
27 109 -8 27 -24 42 -89 80 -91 53 -136 60 -171 27 l-23 -22 5 35 c9 54 -24
81 -291 228 l-239 133 -46 -24 c-25 -14 -87 -49 -139 -78 -51 -29 -94 -51 -96
-49 -2 2 -8 75 -15 163 -11 148 -17 174 -42 175 -4 0 -5 -8 -3 -19z m486 -297
c66 -36 119 -69 119 -72 -1 -19 -118 -223 -123 -215 -4 6 -56 38 -117 72 -60
34 -110 66 -110 72 0 5 9 28 20 50 l21 40 32 -19 c105 -64 199 -112 207 -107
24 15 2 34 -105 93 l-114 64 22 44 c11 24 23 44 25 44 3 0 58 -30 123 -66z
m337 -193 c12 -11 22 -28 22 -39 0 -27 -57 -102 -77 -102 -20 0 -203 102 -203
113 0 5 16 38 36 73 l36 64 81 -44 c45 -25 92 -54 105 -65z"/>
<path d="M13391 9796 c-39 -73 -71 -138 -71 -145 0 -22 20 -10 37 23 l18 35
92 -52 93 -52 0 -51 c0 -37 4 -54 15 -58 12 -4 15 5 15 49 0 43 3 55 15 55 9
0 27 12 42 26 14 14 26 24 27 22 1 -2 7 -15 13 -30 8 -18 43 -43 112 -83 107
-60 117 -73 83 -115 -26 -32 -57 -28 -140 20 -93 54 -105 76 -77 143 5 12 3
17 -8 17 -34 0 -44 -100 -14 -138 5 -7 47 -33 93 -58 94 -51 128 -53 163 -7
55 69 42 96 -73 161 -52 29 -100 59 -106 67 -18 22 -3 64 26 77 23 11 36 7
111 -32 100 -53 114 -76 88 -141 -10 -25 12 -33 25 -9 13 24 16 76 6 107 -5
14 -37 39 -87 67 -99 56 -133 62 -168 27 -18 -18 -18 -17 -18 21 0 22 -7 46
-17 57 -14 16 -208 131 -220 131 -2 0 -35 -60 -75 -134z m184 32 c106 -60 116
-77 84 -141 -35 -67 -54 -68 -161 -7 -51 29 -95 54 -97 56 -7 7 62 144 72 144
5 0 51 -24 102 -52z"/>
<path d="M14027 9603 c-27 -46 -147 -272 -147 -276 0 -11 250 -148 260 -142
21 13 7 25 -100 85 -60 34 -112 66 -115 71 -5 6 27 82 40 97 2 2 54 -26 116
-62 62 -35 117 -62 121 -60 22 14 -2 34 -102 89 -60 33 -110 64 -110 68 0 17
41 87 51 87 6 0 59 -27 119 -61 98 -55 130 -65 130 -39 0 7 -242 150 -254 150
-3 0 -7 -3 -9 -7z"/>
<path d="M18783 9448 c-39 -73 -73 -139 -75 -146 -3 -13 224 -151 250 -152 6
0 12 6 12 14 0 8 -42 38 -92 67 -51 28 -103 58 -115 65 l-23 14 22 45 c12 25
27 45 32 45 6 0 59 -27 118 -60 59 -33 109 -60 111 -60 3 0 7 7 10 15 5 10
-23 30 -96 71 -138 77 -130 68 -104 120 11 24 24 44 29 44 4 0 56 -27 115 -60
114 -63 128 -68 136 -47 3 8 -41 39 -123 85 -71 40 -130 72 -132 72 -2 0 -36
-60 -75 -132z"/>
<path d="M15560 7820 c0 -11 -4 -20 -10 -20 -5 0 -12 -11 -16 -25 -3 -14 -10
-25 -15 -25 -5 0 -9 -5 -9 -10 0 -6 -12 -29 -26 -51 -29 -46 -26 -65 3 -22 21
30 93 161 93 168 0 3 -4 5 -10 5 -5 0 -10 -9 -10 -20z"/>
<path d="M9306 5062 c-7 -12 18 -34 279 -242 127 -100 246 -196 265 -212 91
-75 221 -170 226 -165 3 3 -5 11 -17 18 -13 7 -32 22 -42 35 -9 13 -27 26 -38
29 -11 4 -42 28 -68 53 -26 26 -54 52 -62 57 -8 6 -45 36 -84 68 -97 79 -372
303 -417 338 -20 16 -39 26 -42 21z"/>
<path d="M10137 4380 c10 -11 24 -20 33 -20 11 1 8 6 -9 20 -30 26 -46 26 -24
0z"/>
<path d="M10180 4346 c0 -2 8 -10 18 -17 15 -13 16 -12 3 4 -13 16 -21 21 -21
13z"/>
<path d="M10380 4186 c0 -2 8 -10 18 -17 15 -13 16 -12 3 4 -13 16 -21 21 -21
13z"/>
<path d="M11640 3166 c0 -3 9 -10 20 -16 11 -6 20 -8 20 -6 0 3 -9 10 -20 16
-11 6 -20 8 -20 6z"/>
<path d="M11697 3129 c7 -7 15 -10 18 -7 3 3 -2 9 -12 12 -14 6 -15 5 -6 -5z"/>
</g>
</svg>
