<svg viewBox="0 0 1200 800" xmlns="http://www.w3.org/2000/svg">
  <rect width="1200" height="800" fill="#e8e5df" rx="8"/>
  <rect x="0" y="0" width="1200" height="44" fill="#d5d2cb" rx="8"/>
  <rect x="0" y="30" width="1200" height="14" fill="#d5d2cb"/>
  <circle cx="20" cy="22" r="5" fill="#e06c5a"/>
  <circle cx="38" cy="22" r="5" fill="#e0b84a"/>
  <circle cx="56" cy="22" r="5" fill="#5ab87a"/>
  <rect x="200" y="12" width="600" height="20" fill="#ebe8e2" rx="10"/>
  <text x="500" y="26" font-family="Helvetica Neue, Arial, sans-serif" font-size="9" fill="#8a8880" text-anchor="middle">revista-norte.com</text>

  <!-- Page background -->
  <rect x="0" y="44" width="1200" height="756" fill="#fafaf8"/>

  <!-- Thick top rule -->
  <rect x="0" y="44" width="1200" height="3" fill="#1a1a18"/>

  <!-- Nav -->
  <rect x="0" y="47" width="1200" height="52" fill="#fafaf8"/>
  <text x="600" y="79" font-family="Georgia, serif" font-size="22" font-weight="400" fill="#1a1a18" text-anchor="middle" font-style="italic">Revista Norte</text>
  <line x1="60" y1="99" x2="1140" y2="99" stroke="#d5d2cb" stroke-width="0.8"/>
  <!-- Nav links -->
  <text x="200" y="91" font-family="Helvetica Neue, Arial, sans-serif" font-size="8" fill="#6b6b65" letter-spacing="3">CULTURA</text>
  <text x="340" y="91" font-family="Helvetica Neue, Arial, sans-serif" font-size="8" fill="#6b6b65" letter-spacing="3">DISEÑO</text>
  <text x="460" y="91" font-family="Helvetica Neue, Arial, sans-serif" font-size="8" fill="#6b6b65" letter-spacing="3">VIAJES</text>
  <text x="780" y="91" font-family="Helvetica Neue, Arial, sans-serif" font-size="8" fill="#6b6b65" letter-spacing="3">FOTOGRAFÍA</text>
  <text x="930" y="91" font-family="Helvetica Neue, Arial, sans-serif" font-size="8" fill="#6b6b65" letter-spacing="3">OPINIÓN</text>

  <!-- Featured article: large -->
  <rect x="60" y="120" width="680" height="400" fill="#e0ddd6" rx="2"/>
  <rect x="60" y="360" width="680" height="160" fill="rgba(10,10,8,0.72)"/>
  <text x="80" y="400" font-family="Helvetica Neue, Arial, sans-serif" font-size="8" fill="#d4a84a" letter-spacing="3">DISEÑO · ESPECIAL</text>
  <text x="80" y="428" font-family="Georgia, serif" font-size="26" fill="#f0ede6" font-style="italic">El renacimiento</text>
  <text x="80" y="456" font-family="Georgia, serif" font-size="26" fill="#f0ede6" font-style="italic">del cartel tipográfico</text>
  <text x="80" y="480" font-family="Helvetica Neue, Arial, sans-serif" font-size="8" fill="#9a9890">Por Ana Reyes · 12 min</text>

  <!-- Sidebar articles -->
  <rect x="770" y="120" width="370" height="188" fill="#e8e5df" rx="2"/>
  <text x="790" y="148" font-family="Helvetica Neue, Arial, sans-serif" font-size="7.5" fill="#8a8880" letter-spacing="2">CULTURA</text>
  <text x="790" y="170" font-family="Georgia, serif" font-size="14" fill="#1a1a18" font-style="italic">Museos que redefinen</text>
  <text x="790" y="188" font-family="Georgia, serif" font-size="14" fill="#1a1a18" font-style="italic">el espacio expositivo</text>
  <text x="790" y="210" font-family="Helvetica Neue, Arial, sans-serif" font-size="7.5" fill="#b0aea8">6 min de lectura</text>

  <line x1="770" y1="310" x2="1140" y2="310" stroke="#d5d2cb" stroke-width="0.6"/>

  <rect x="770" y="322" width="370" height="198" fill="#e8e5df" rx="2"/>
  <text x="790" y="350" font-family="Helvetica Neue, Arial, sans-serif" font-size="7.5" fill="#8a8880" letter-spacing="2">VIAJES</text>
  <text x="790" y="372" font-family="Georgia, serif" font-size="14" fill="#1a1a18" font-style="italic">Galicia: la nueva frontera</text>
  <text x="790" y="390" font-family="Georgia, serif" font-size="14" fill="#1a1a18" font-style="italic">del turismo consciente</text>
  <text x="790" y="412" font-family="Helvetica Neue, Arial, sans-serif" font-size="7.5" fill="#b0aea8">9 min de lectura</text>

  <!-- Bottom article strip -->
  <line x1="60" y1="545" x2="1140" y2="545" stroke="#d5d2cb" stroke-width="0.8"/>
  <text x="600" y="574" font-family="Helvetica Neue, Arial, sans-serif" font-size="8" fill="#8a8880" text-anchor="middle" letter-spacing="4">MÁS ARTÍCULOS</text>
  <rect x="60" y="588" width="320" height="130" fill="#ede9e2" rx="2"/>
  <rect x="420" y="588" width="320" height="130" fill="#e5e2db" rx="2"/>
  <rect x="780" y="588" width="320" height="130" fill="#eae7e0" rx="2"/>
  <text x="220" y="660" font-family="Georgia, serif" font-size="11" fill="#1a1a18" text-anchor="middle" font-style="italic">Tipografía variable</text>
  <text x="580" y="660" font-family="Georgia, serif" font-size="11" fill="#1a1a18" text-anchor="middle" font-style="italic">Color y emoción</text>
  <text x="940" y="660" font-family="Georgia, serif" font-size="11" fill="#1a1a18" text-anchor="middle" font-style="italic">La ciudad como lienzo</text>
</svg>
